<svg width="12" height="20" viewBox="0 0 12 20" fill="none" xmlns="http://www.w3.org/2000/svg">
<path fill-rule="evenodd" clip-rule="evenodd" d="M12 3.62V12.428C12 12.674 12 12.968 11.978 13.227C11.953 13.527 11.888 13.957 11.651 14.404C11.3697 14.9352 10.9352 15.3697 10.404 15.651C10.038 15.839 9.637 15.951 9.227 15.978C8.968 16 8.674 16 8.427 16H3.573C3.327 16 3.033 16 2.774 15.978C2.474 15.953 2.044 15.888 1.597 15.651C1.06579 15.3697 0.631347 14.9352 0.35 14.404C0.16143 14.0382 0.050123 13.6376 0.0229998 13.227C-2.36556e-07 12.968 0 12.674 0 12.427V3.573C0 3.327 -1.63913e-07 3.033 0.0219998 2.774C0.0469998 2.474 0.112 2.044 0.349 1.597C0.630347 1.06579 1.06479 0.631347 1.596 0.35C1.962 0.162 2.362 0.05 2.773 0.023C3.032 1.86265e-09 3.326 0 3.573 0H8.427C8.673 0 8.967 7.45058e-08 9.226 0.0220001C9.526 0.0470001 9.956 0.112 10.403 0.349C10.9342 0.630347 11.3687 1.06479 11.65 1.596C11.887 2.043 11.952 2.473 11.977 2.773C11.999 3.032 11.999 3.326 11.999 3.573L12 3.62ZM9.468 2.116C9.248 2 8.959 2 8.38 2H3.62C3.041 2 2.752 2 2.532 2.116C2.35476 2.20982 2.20982 2.35476 2.116 2.532C2 2.752 2 3.042 2 3.62V12.38C2 12.959 2 13.248 2.116 13.468C2.20982 13.6452 2.35476 13.7902 2.532 13.884C2.752 14 3.042 14 3.62 14H8.38C8.959 14 9.248 14 9.468 13.884C9.64524 13.7902 9.79018 13.6452 9.884 13.468C10 13.248 10 12.959 10 12.38V3.62C10 3.041 10 2.752 9.884 2.532C9.79018 2.35476 9.64524 2.20982 9.468 2.116Z" fill="#181D25"/>
<path fill-rule="evenodd" clip-rule="evenodd" d="M6 15C6.26522 15 6.51957 15.1054 6.70711 15.2929C6.89464 15.4804 7 15.7348 7 16V19C7 19.2652 6.89464 19.5196 6.70711 19.7071C6.51957 19.8946 6.26522 20 6 20C5.73478 20 5.48043 19.8946 5.29289 19.7071C5.10536 19.5196 5 19.2652 5 19V16C5 15.7348 5.10536 15.4804 5.29289 15.2929C5.48043 15.1054 5.73478 15 6 15Z" fill="#181D25"/>
<path fill-rule="evenodd" clip-rule="evenodd" d="M1 19C1 18.7348 1.10536 18.4804 1.29289 18.2929C1.48043 18.1054 1.73478 18 2 18H10C10.2652 18 10.5196 18.1054 10.7071 18.2929C10.8946 18.4804 11 18.7348 11 19C11 19.2652 10.8946 19.5196 10.7071 19.7071C10.5196 19.8946 10.2652 20 10 20H2C1.73478 20 1.48043 19.8946 1.29289 19.7071C1.10536 19.5196 1 19.2652 1 19Z" fill="#181D25"/>
</svg>
